<svg xmlns="http://www.w3.org/2000/svg" viewBox="0 0 880 320" width="880" height="320" font-family="-apple-system,Segoe UI,Helvetica,Arial,sans-serif">
  <defs>
    <marker id="a" viewBox="0 0 10 10" refX="9" refY="5" markerWidth="7" markerHeight="7" orient="auto">
      <path d="M0,0 L10,5 L0,10 z" fill="#8b949e"/>
    </marker>
  </defs>
  <style>
    .box  { fill:#ffffff; stroke:#8b949e; stroke-width:1.5; rx:6; }
    .lbl  { fill:#1f2328; font-size:14px; text-anchor:middle; }
    .sub  { fill:#57606a; font-size:11px; text-anchor:middle; }
    .edge { stroke:#8b949e; stroke-width:1.5; fill:none; marker-end:url(#a); }
    .etxt { fill:#57606a; font-size:11px; text-anchor:middle; }
  </style>

  <rect class="box" x="20"  y="140" width="90"  height="46"/>
  <text class="lbl" x="65"  y="168">client</text>

  <rect class="box" x="160" y="140" width="90"  height="46"/>
  <text class="lbl" x="205" y="168">nginx</text>

  <rect class="box" x="300" y="90"  width="110" height="46"/>
  <text class="lbl" x="355" y="118">api 1</text>
  <rect class="box" x="300" y="190" width="110" height="46"/>
  <text class="lbl" x="355" y="218">api 2</text>
  <text class="sub" x="355" y="258">run the model inline</text>
  <text class="sub" x="355" y="272">for /v1/detect</text>

  <rect class="box" x="480" y="130" width="130" height="66"/>
  <text class="lbl" x="545" y="158">NATS</text>
  <text class="sub" x="545" y="178">stream + KV</text>

  <rect class="box" x="690" y="90"  width="110" height="46"/>
  <text class="lbl" x="745" y="118">worker 1</text>
  <rect class="box" x="690" y="190" width="110" height="46"/>
  <text class="lbl" x="745" y="218">worker 2</text>

  <path class="edge" d="M110,163 L155,163"/>
  <path class="edge" d="M250,158 L262,158 L262,113 L295,113"/>
  <path class="edge" d="M250,168 L262,168 L262,213 L295,213"/>

  <path class="edge" d="M410,113 L443,113 L443,150 L475,150"/>
  <path class="edge" d="M410,213 L443,213 L443,176 L475,176"/>
  <text class="etxt" x="446" y="100">publish first</text>

  <path class="edge" d="M610,150 L650,150 L650,113 L685,113"/>
  <path class="edge" d="M610,176 L650,176 L650,213 L685,213"/>

  <path class="edge" d="M770,90  L770,40  L520,40  L520,127"/>
  <path class="edge" d="M770,236 L770,290 L520,290 L520,199"/>
  <text class="etxt" x="645" y="32">results</text>
  <text class="etxt" x="645" y="306">results</text>
</svg>
